
<svg xmlns="http://www.w3.org/2000/svg" xml:space="preserve" width="99px" height="82px" version="1.1" viewBox="0 0 13.61 11.31" xmlns:xlink="http://www.w3.org/1999/xlink">
   <path class="fil0" d="M1.52 8.22l-1.46 1.43c-0.06,0.06 -0.08,0.15 -0.04,0.23 0.03,0.08 0.11,0.13 0.19,0.13l4.05 0c0.59,0.82 1.54,1.3 2.54,1.3 1.01,0 1.96,-0.48 2.55,-1.3l4.05 0c0.08,0 0.16,-0.05 0.19,-0.13 0.04,-0.08 0.02,-0.17 -0.04,-0.23l-1.46 -1.43 1.46 -1.53c0.06,-0.06 0.08,-0.15 0.04,-0.23 -0.03,-0.08 -0.11,-0.13 -0.19,-0.13l-0.22 0c0.05,-0.41 -0.05,-0.83 -0.27,-1.17 -0.03,-0.05 -0.07,-0.08 -0.12,-0.09 -0.39,-0.13 -0.76,-0.31 -1.11,-0.53 -0.05,-0.03 -0.11,-0.04 -0.16,-0.03 -0.06,0.02 -0.11,0.05 -0.14,0.1l-0.37 0.65 -0.38 -0.65c-0.03,-0.05 -0.07,-0.08 -0.13,-0.1 -0.06,-0.01 -0.12,0 -0.16,0.03 -0.27,0.17 -0.56,0.31 -0.85,0.43 -0.06,-0.32 -0.15,-0.62 -0.28,-0.81 -0.03,-0.04 -0.07,-0.08 -0.11,-0.09 -0.47,-0.15 -0.96,-0.39 -1.46,-0.7 -0.05,-0.03 -0.1,-0.04 -0.16,-0.02 -0.06,0.01 -0.1,0.05 -0.13,0.1l-0.55 0.94 -0.54 -0.94c-0.03,-0.05 -0.07,-0.09 -0.13,-0.1 -0.06,-0.02 -0.11,-0.01 -0.16,0.02 -0.5,0.31 -0.99,0.55 -1.46,0.7 -0.04,0.01 -0.08,0.05 -0.11,0.09 -0.13,0.19 -0.22,0.49 -0.28,0.81 -0.29,-0.12 -0.58,-0.26 -0.85,-0.43 -0.05,-0.03 -0.1,-0.04 -0.16,-0.03 -0.06,0.02 -0.1,0.05 -0.13,0.1l-0.38 0.65 -0.38 -0.65c-0.02,-0.05 -0.07,-0.08 -0.13,-0.1 -0.05,-0.01 -0.11,0 -0.16,0.03 -0.35,0.22 -0.72,0.4 -1.11,0.53 -0.05,0.01 -0.09,0.04 -0.12,0.09 -0.22,0.34 -0.32,0.76 -0.27,1.17l-0.22 0c-0.08,0 -0.16,0.05 -0.19,0.13 -0.04,0.08 -0.02,0.17 0.04,0.23l1.46 1.53zm-0.79 1.36l1.23 -1.21c0.09,-0.08 0.09,-0.21 0.01,-0.29l-1.26 -1.32 3.29 0c-0.45,0.89 -0.45,1.94 0,2.82l-3.27 0zm6.07 1.31c-1.09,0 -2.08,-0.67 -2.5,-1.68 -0.42,-1.01 -0.19,-2.18 0.59,-2.96 0.77,-0.77 1.94,-1.01 2.95,-0.59 1.02,0.42 1.68,1.41 1.68,2.51 0,1.5 -1.22,2.71 -2.72,2.72zm4.84 -2.81c-0.08,0.08 -0.08,0.21 0.01,0.29l1.23 1.21 -3.27 0c0.45,-0.88 0.45,-1.93 0,-2.82l3.29 0 -1.26 1.32zm-1.27 -3.07l0.45 0.78c0.04,0.07 0.11,0.11 0.19,0.11 0.07,0 0.14,-0.04 0.18,-0.11l0.45 -0.78c0.3,0.18 0.62,0.32 0.95,0.44 0.15,0.27 0.21,0.58 0.16,0.88l-3.19 0c0.02,-0.31 0.02,-0.62 -0.01,-0.92 0.28,-0.11 0.56,-0.24 0.82,-0.4zm-5.65 -0.56c0.45,-0.16 0.88,-0.36 1.28,-0.6l0.62 1.07c0.04,0.06 0.11,0.1 0.18,0.1 0.08,0 0.15,-0.04 0.19,-0.1l0.62 -1.07c0.4,0.24 0.83,0.44 1.28,0.6 0.18,0.34 0.27,1.07 0.26,1.63 -0.6,-0.67 -1.45,-1.05 -2.35,-1.05 -0.89,0 -1.74,0.39 -2.34,1.05 -0.01,-0.57 0.08,-1.29 0.26,-1.63zm-3.7 1c0.33,-0.12 0.65,-0.26 0.94,-0.44l0.46 0.78c0.03,0.07 0.1,0.11 0.18,0.11 0.08,0 0.15,-0.04 0.18,-0.11l0.46 -0.78c0.26,0.16 0.54,0.29 0.82,0.4 -0.03,0.3 -0.03,0.61 -0.01,0.92l-3.19 0c-0.05,-0.3 0.01,-0.61 0.16,-0.88zm5.8 -2.12c0,0 0.01,0 0.02,0 0.34,0 0.66,-0.18 0.89,-0.5 0.26,-0.35 0.41,-0.85 0.45,-1.47 0,-0.01 0,-0.02 0,-0.03 -0.02,-0.74 -0.63,-1.33 -1.37,-1.33l-0.01 0c-0.74,0 -1.35,0.59 -1.37,1.33l0 0.02c0.01,0.56 0.16,1.05 0.42,1.41 0.26,0.35 0.61,0.56 0.97,0.57zm-0.02 -2.9c0.51,0 0.93,0.4 0.95,0.91 -0.08,1.15 -0.54,1.56 -0.91,1.56 -0.01,0 -0.01,0 -0.01,0 -0.46,-0.01 -0.95,-0.59 -0.97,-1.56 0.01,-0.51 0.43,-0.91 0.94,-0.91zm4.22 3.99c0,0 0.01,0 0.01,0 0.46,0 1.01,-0.41 1.09,-1.57 0,-0.01 0,-0.01 0,-0.02 -0.02,-0.6 -0.51,-1.08 -1.11,-1.08l0 0c-0.6,0 -1.09,0.48 -1.11,1.08l0 0.01c0.01,0.44 0.13,0.83 0.34,1.12 0.2,0.28 0.48,0.45 0.78,0.46zm-0.01 -2.24c0.36,0 0.67,0.29 0.68,0.65 -0.06,0.81 -0.37,1.17 -0.66,1.16 -0.34,0 -0.69,-0.44 -0.7,-1.15 0.01,-0.37 0.31,-0.66 0.68,-0.66zm-8.4 2.24c0,0 0.01,0 0.02,0 0.45,0 1,-0.41 1.08,-1.57 0,-0.01 0,-0.01 0,-0.02 -0.02,-0.6 -0.51,-1.08 -1.11,-1.08l0 0c-0.6,0 -1.09,0.48 -1.11,1.08l0 0.01c0.01,0.44 0.13,0.83 0.34,1.12 0.2,0.28 0.49,0.45 0.78,0.46zm-0.01 -2.24c0.37,0 0.67,0.29 0.68,0.65 -0.05,0.81 -0.37,1.16 -0.65,1.16 -0.01,0 -0.01,0 -0.01,0 -0.33,0 -0.69,-0.44 -0.7,-1.15 0.01,-0.37 0.31,-0.66 0.68,-0.66z" fill="#092972" fill-rule="nonzero"/>
   <path class="fil1" d="M8.79 7.59c-0.02,-0.08 -0.09,-0.13 -0.16,-0.15l-1.1 -0.19 -0.52 -0.98c-0.04,-0.07 -0.11,-0.11 -0.19,-0.11 -0.08,0 -0.15,0.04 -0.19,0.11l-0.52 0.98 -1.09 0.19c-0.08,0.02 -0.14,0.07 -0.17,0.15 -0.02,0.07 0,0.15 0.05,0.21l0.77 0.8 -0.15 1.1c-0.01,0.08 0.02,0.16 0.08,0.2 0.07,0.05 0.15,0.06 0.22,0.02l1 -0.48 1 0.48c0.07,0.04 0.16,0.03 0.22,-0.02 0.06,-0.04 0.1,-0.12 0.08,-0.2l-0.14 -1.1 0.76 -0.8c0.06,-0.06 0.08,-0.14 0.05,-0.21zm-1.19 0.79c-0.05,0.05 -0.07,0.11 -0.06,0.18l0.11 0.81 -0.74 -0.36c-0.05,-0.02 -0.12,-0.02 -0.18,0l-0.74 0.36 0.11 -0.81c0.01,-0.07 -0.01,-0.13 -0.05,-0.18l-0.57 -0.59 0.8 -0.14c0.07,-0.02 0.12,-0.06 0.15,-0.11l0.39 -0.72 0.39 0.72c0.03,0.05 0.08,0.09 0.15,0.11l0.8 0.14 -0.56 0.59z" fill="#009fe0" fill-rule="nonzero"/>
</svg>
