
<svg xmlns="http://www.w3.org/2000/svg" xml:space="preserve" width="94px" height="87px" version="1.1"
viewBox="0 0 6.3 5.82" xmlns:xlink="http://www.w3.org/1999/xlink">
   <path d="M2.27 3.48c-0.02,-0.01 -0.03,-0.02 -0.05,-0.03 -0.05,-0.02 -0.11,-0.03 -0.18,-0.03 -0.1,0 -0.18,0.02 -0.25,0.06 -0.07,0.05 -0.1,0.13 -0.1,0.25 0,0.11 0.03,0.19 0.1,0.24 0.07,0.05 0.15,0.07 0.25,0.07 0.09,0 0.16,-0.02 0.22,-0.07l0.01 -0.01c0.07,-0.05 0.1,-0.13 0.1,-0.24 0,-0.11 -0.04,-0.19 -0.1,-0.24zm0.43 -1.74c-0.14,-0.11 -0.33,-0.17 -0.57,-0.17 -0.17,0 -0.32,0.02 -0.46,0.06 -0.13,0.04 -0.26,0.1 -0.39,0.17l0.23 0.44c0.1,-0.05 0.2,-0.09 0.3,-0.12 0.1,-0.03 0.19,-0.04 0.27,-0.04 0.07,0 0.12,0.01 0.15,0.04 0.04,0.03 0.06,0.06 0.06,0.1 0,0.03 -0.01,0.06 -0.02,0.09 -0.01,0.03 -0.03,0.06 -0.07,0.1 -0.03,0.04 -0.08,0.08 -0.15,0.12 -0.08,0.05 -0.14,0.1 -0.18,0.15 -0.04,0.05 -0.07,0.1 -0.09,0.15 -0.02,0.06 -0.02,0.12 -0.02,0.19l0 0.14 0.5 0 0 -0.09c0,-0.04 0.01,-0.07 0.02,-0.09 0.02,-0.03 0.04,-0.06 0.08,-0.09 0.04,-0.03 0.09,-0.07 0.16,-0.1 0.09,-0.06 0.17,-0.12 0.23,-0.19 0.06,-0.06 0.09,-0.13 0.12,-0.2 0.03,-0.07 0.04,-0.15 0.04,-0.23 -0.01,-0.17 -0.08,-0.32 -0.21,-0.43zm0 0z" fill="none" fill-rule="nonzero" stroke="#009fe0" stroke-width="0.2" stroke-linecap="round" stroke-linejoin="round" stroke-miterlimit="10"/>
   <path d="M3.73 0.75l-3.28 0c-0.19,0 -0.35,0.16 -0.35,0.35l0 3.29c0,0.2 0.16,0.35 0.35,0.35l0.32 0c0,0 -0.42,0.98 -0.39,0.98 0.04,0 1.41,-0.98 1.41,-0.98l1.94 0c0.2,0 0.35,-0.15 0.35,-0.35l0 -3.29c0,-0.19 -0.15,-0.35 -0.35,-0.35zm-3.14 1.06l0 -0.54 0.55 0m1.9 -0.01l0.55 0 0 0.54m0 1.75l0 0.54 -0.55 0" fill="none" fill-rule="nonzero" stroke="#092972" stroke-width="0.2" stroke-linecap="round" stroke-linejoin="round" stroke-miterlimit="10"/>
   <polyline points="0.63,3.55 0.63,4.1 1.21,4.1 " ffill="none" fill-rule="nonzero" stroke="#092972" stroke-width="0.2" stroke-linecap="round" stroke-linejoin="round" stroke-miterlimit="10"/>
   <path d="M2.21 0.75l0 -0.3c0,-0.19 0.16,-0.35 0.36,-0.35l3.28 0c0.19,0 0.35,0.16 0.35,0.35l0 3.29c0,0.2 -0.16,0.35 -0.35,0.35l-0.32 0c0,0 0.39,0.9 0.39,0.98 -0.04,0 -1.41,-0.98 -1.41,-0.98l-0.43 0" fill="none" fill-rule="nonzero" stroke="#092972" stroke-width="0.2" stroke-linecap="round" stroke-linejoin="round" stroke-miterlimit="10"/>
</svg>
