
<svg xmlns="http://www.w3.org/2000/svg" xml:space="preserve" width="93px" height="93px" version="1.1"
viewBox="0 0 6.23 6.23" xmlns:xlink="http://www.w3.org/1999/xlink">
   <path d="M6.22 1.48c-0.03,-0.08 -0.08,-0.15 -0.15,-0.19 -0.07,-0.04 -0.16,-0.06 -0.24,-0.03 -0.08,0.02 -0.14,0.07 -0.18,0.14l-0.06 0.09c-0.05,-0.03 -0.11,-0.01 -0.14,0.04l-0.26 0.45 -0.09 -0.05c-0.03,-0.02 -0.05,-0.02 -0.08,-0.01 -0.03,0 -0.05,0.02 -0.06,0.04 -0.03,0.05 -0.01,0.12 0.03,0.15l0.09 0.05 -0.88 1.53 -0.22 0.58 -0.1 0.19c-0.06,0.11 -0.05,0.24 0.02,0.34l-0.24 0.28 -0.06 -0.16c-0.03,-0.07 -0.1,-0.12 -0.18,-0.13 -0.08,0 -0.15,0.03 -0.19,0.1l-0.04 0.07 -0.03 -0.42c-0.01,-0.1 -0.09,-0.18 -0.19,-0.19 -0.09,-0.01 -0.19,0.05 -0.22,0.14l-0.25 0.77c-0.02,0.05 0.01,0.11 0.06,0.13 0.01,0 0.02,0.01 0.03,0.01 0.05,0 0.09,-0.03 0.1,-0.07l0.26 -0.77 0.03 0.42c0.01,0.09 0.08,0.17 0.16,0.19 0.09,0.02 0.18,-0.02 0.23,-0.1l0.04 -0.06 0.06 0.16c0.03,0.07 0.09,0.12 0.16,0.13 0.08,0.01 0.15,-0.02 0.2,-0.08l0.24 -0.3c0.02,0 0.05,0.01 0.08,0.01 0.11,0 0.21,-0.06 0.27,-0.16l0.1 -0.17 0.4 -0.48 0.89 -1.55 0.09 0.05c0.03,0.02 0.04,0.04 0.05,0.07 0.01,0.02 0,0.05 -0.01,0.08l-0.42 0.72c-0.01,0.02 -0.02,0.05 -0.01,0.08 0.01,0.02 0.02,0.05 0.05,0.06 0.02,0.02 0.05,0.02 0.08,0.01 0.02,0 0.05,-0.02 0.06,-0.05l0.42 -0.72c0.04,-0.07 0.05,-0.15 0.03,-0.23 -0.03,-0.08 -0.08,-0.15 -0.15,-0.19l-0.09 -0.05 0.26 -0.45c0.03,-0.05 0.01,-0.11 -0.04,-0.14l0.05 -0.09c0.05,-0.08 0.06,-0.16 0.04,-0.24zm-0.4 0.02c0.02,-0.02 0.04,-0.04 0.07,-0.04 0.02,-0.01 0.05,-0.01 0.08,0.01 0.02,0.01 0.04,0.03 0.05,0.06 0,0.03 0,0.05 -0.01,0.08l-0.06 0.09 -0.18 -0.11 0.05 -0.09zm-1.41 2.9l-0.05 -0.03 -0.16 -0.09 0.15 -0.39 0.33 0.19 -0.27 0.32zm-0.31 0.3c-0.04,-0.03 -0.06,-0.09 -0.03,-0.13l0.05 -0.09 0.18 0.1 -0.05 0.09c-0.02,0.02 -0.04,0.04 -0.07,0.05 -0.03,0 -0.06,0 -0.08,-0.02zm0.7 -0.79l-0.36 -0.21 0.83 -1.44 0.36 0.21 -0.83 1.44zm0.93 -1.62l-0.36 -0.21 0.21 -0.36 0.36 0.21 -0.21 0.36zm0 0z" fill="#009fe0" fill-rule="nonzero"/>
   <path d="M1.64 4.65l-0.37 0.37 -0.22 -0.22c-0.04,-0.04 -0.11,-0.04 -0.15,0 -0.02,0.02 -0.03,0.04 -0.03,0.07 0,0.03 0.01,0.05 0.03,0.07l0.22 0.22c0.04,0.04 0.1,0.06 0.15,0.06 0.06,0 0.11,-0.02 0.15,-0.06l0.36 -0.36c0.04,-0.04 0.04,-0.11 0,-0.14 -0.04,-0.04 -0.1,-0.05 -0.14,-0.01zm0 0z" fill="#092972" fill-rule="nonzero"/>
   <path d="M0.42 4.93c0,0.49 0.39,0.88 0.88,0.88 0.48,0 0.88,-0.39 0.88,-0.88 0,-0.06 -0.05,-0.1 -0.1,-0.1 -0.06,0 -0.11,0.04 -0.11,0.1 0,0.37 -0.3,0.67 -0.67,0.67 -0.38,0 -0.68,-0.3 -0.68,-0.67 0,-0.37 0.3,-0.68 0.68,-0.68 0.14,0 0.29,0.05 0.4,0.14 0.05,0.03 0.11,0.02 0.15,-0.02 0.03,-0.05 0.02,-0.11 -0.02,-0.15 -0.27,-0.2 -0.63,-0.23 -0.93,-0.08 -0.3,0.15 -0.48,0.46 -0.48,0.79zm0 0z"/>
   <path d="M3.74 0.83c0.05,0 0.1,-0.05 0.1,-0.1 0,-0.06 -0.05,-0.11 -0.1,-0.11l-2.7 0c-0.06,0 -0.11,0.05 -0.11,0.11l0 0.41c0,0.06 0.05,0.11 0.11,0.11l2.7 0c0.05,0 0.1,-0.05 0.1,-0.11 0,-0.06 -0.05,-0.1 -0.1,-0.1l-2.6 0 0 -0.21 2.6 0zm0 0z"/>
   <path d="M1.35 1.45c-0.06,0 -0.1,0.05 -0.1,0.11 0,0.05 0.04,0.1 0.1,0.1l2.07 0c0.06,0 0.11,-0.05 0.11,-0.1 0,-0.06 -0.05,-0.11 -0.11,-0.11l-2.07 0zm0 0z"/>
   <path d="M4.05 2.18l-2.29 0c-0.05,0 -0.1,0.05 -0.1,0.1 0,0.06 0.05,0.11 0.1,0.11l2.29 0c0.05,0 0.1,-0.05 0.1,-0.11 0,-0.05 -0.05,-0.1 -0.1,-0.1zm0 0z" fill="#092972" fill-rule="nonzero"/>
   <path d="M3.01 2.91c0,-0.06 -0.05,-0.11 -0.1,-0.11l-2.08 0c-0.06,0 -0.1,0.05 -0.1,0.11 0,0.05 0.04,0.1 0.1,0.1l2.08 0c0.05,0 0.1,-0.05 0.1,-0.1zm0 0z" fill="#092972" fill-rule="nonzero"/>
   <path d="M4.05 2.8l-0.73 0c-0.06,0 -0.1,0.05 -0.1,0.11 0,0.05 0.04,0.1 0.1,0.1l0.73 0c0.05,0 0.1,-0.05 0.1,-0.1 0,-0.06 -0.05,-0.11 -0.1,-0.11zm0 0z" fill="#092972" fill-rule="nonzero"/>
   <path d="M1.87 3.53c0.06,0 0.1,-0.05 0.1,-0.11 0,-0.05 -0.04,-0.1 -0.1,-0.1l-1.04 0c-0.06,0 -0.1,0.05 -0.1,0.1 0,0.06 0.04,0.11 0.1,0.11l1.04 0zm0 0z" fill="#092972" fill-rule="nonzero"/>
   <path d="M2.28 3.53l0.73 0c0.06,0 0.1,-0.05 0.1,-0.11 0,-0.05 -0.04,-0.1 -0.1,-0.1l-0.73 0c-0.05,0 -0.1,0.05 -0.1,0.1 0,0.06 0.05,0.11 0.1,0.11zm0 0z" fill="#092972" fill-rule="nonzero"/>
   <path d="M4.67 4.77c-0.06,0 -0.1,0.05 -0.1,0.11l0 1.04c0,0.05 -0.05,0.1 -0.11,0.1l-4.15 0c-0.06,0 -0.1,-0.05 -0.1,-0.1l0 -5.61c0,-0.06 0.04,-0.1 0.1,-0.1l4.15 0c0.06,0 0.11,0.04 0.11,0.1l0 1.95c0,0.06 0.04,0.1 0.1,0.1 0.06,0 0.1,-0.04 0.1,-0.1l0 -1.95c0,-0.17 -0.14,-0.31 -0.31,-0.31l-4.15 0c-0.17,0 -0.31,0.14 -0.31,0.31l0 5.61c0,0.17 0.14,0.31 0.31,0.31l4.15 0c0.17,0 0.31,-0.14 0.31,-0.31l0 -1.04c0,-0.06 -0.04,-0.11 -0.1,-0.11zm0 0z" fill="#092972" fill-rule="nonzero"/>
</svg>
