
<svg xmlns="http://www.w3.org/2000/svg" xml:space="preserve" width="85px" height="85px" version="1.1" viewBox="0 0 21.16 21.16" xmlns:xlink="http://www.w3.org/1999/xlink">
   <path d="M18.93 10.29l0.09 0.06c0.07,0.04 0.15,0.07 0.23,0.07 0.03,0 0.05,-0.01 0.08,-0.01 0.11,-0.02 0.2,-0.08 0.26,-0.18l1.5 -2.21c0.13,-0.19 0.08,-0.44 -0.11,-0.57l-10.17 -6.89c-0.14,-0.1 -0.32,-0.1 -0.46,0l-4.23 2.87 0 -0.95 0.33 0c0.23,0 0.41,-0.19 0.41,-0.41l0 -1.66c0,-0.23 -0.18,-0.41 -0.41,-0.41l-4.14 0c-0.22,0 -0.41,0.18 -0.41,0.41l0 1.66c0,0.22 0.19,0.41 0.41,0.41l0.34 0 0 3.3 -2.47 1.67c-0.19,0.13 -0.24,0.38 -0.11,0.57l1.5 2.21c0.06,0.1 0.16,0.16 0.27,0.18 0.1,0.02 0.21,0 0.31,-0.06l0.08 -0.06 0 10.05 -0.7 0c-0.23,0 -0.41,0.18 -0.41,0.41 0,0.23 0.18,0.41 0.41,0.41l18.1 0c0.23,0 0.42,-0.18 0.42,-0.41 0,-0.23 -0.19,-0.41 -0.42,-0.41l-0.7 0 0 -4.42c0,-0.23 -0.18,-0.42 -0.41,-0.42 -0.23,0 -0.42,0.19 -0.42,0.42l0 4.42 -15.04 0 0 -10.61 7.52 -5.1 7.52 5.1 0 2.47c0,0.22 0.19,0.41 0.42,0.41 0.23,0 0.41,-0.19 0.41,-0.41l0 -1.91zm-16.2 -9.46l3.3 0 0 0.82 -3.3 0 0 -0.82zm0.74 1.65l1.82 0 0 1.51 -1.82 1.23 0 -2.74zm7.11 1.24c-0.08,0 -0.16,0.02 -0.23,0.07l-8.33 5.64 -1.03 -1.53 9.59 -6.5 9.6 6.5 -1.04 1.53 -8.33 -5.64c-0.07,-0.05 -0.15,-0.07 -0.23,-0.07zm0 0z" fill="#092972" fill-rule="nonzero"/>
   <path d="M18.52 13.67c-0.11,0 -0.22,0.04 -0.29,0.12 -0.08,0.07 -0.13,0.18 -0.13,0.29 0,0.11 0.05,0.21 0.13,0.29 0.07,0.08 0.18,0.12 0.29,0.12 0.11,0 0.21,-0.04 0.29,-0.12 0.08,-0.08 0.12,-0.18 0.12,-0.29 0,-0.11 -0.04,-0.22 -0.12,-0.29 -0.08,-0.08 -0.18,-0.12 -0.29,-0.12zm0 0z" fill="#092972" fill-rule="nonzero"/>
   <path d="M10.72 7.66c-0.05,-0.02 -0.09,-0.02 -0.14,-0.02 0,0 0,0 0,0 -0.04,0 -0.09,0 -0.13,0.02l-4.62 1.44c-0.17,0.06 -0.29,0.21 -0.29,0.4l0 3.86c0,2.93 2.09,5.46 4.96,6.01 0.03,0 0.06,0.01 0.08,0.01 0.03,0 0.05,-0.01 0.08,-0.01 2.88,-0.55 4.96,-3.08 4.96,-6.01l0 -3.86c0,-0.19 -0.11,-0.35 -0.29,-0.4l-4.61 -1.44zm4.08 5.7c0,2.51 -1.77,4.67 -4.22,5.18 -2.45,-0.51 -4.21,-2.67 -4.21,-5.18l0 -3.56 4.21 -1.32 4.22 1.32 0 3.56zm0 0z" fill="#092972" fill-rule="nonzero"/>
   <path d="M10.46 9.39l-2.98 0.93c-0.17,0.05 -0.29,0.21 -0.29,0.39l0 2.65c0,2.01 1.35,3.77 3.28,4.3 0.04,0.01 0.07,0.02 0.11,0.02 0.04,0 0.08,-0.01 0.11,-0.02 1.93,-0.53 3.28,-2.29 3.28,-4.3l0 -2.65c0,-0.18 -0.12,-0.34 -0.29,-0.39l-2.98 -0.93c-0.08,-0.03 -0.16,-0.03 -0.24,0zm2.68 1.63l0 2.34c0,1.6 -1.04,3.01 -2.56,3.48 -1.51,-0.47 -2.56,-1.88 -2.56,-3.48l0 -2.34 2.56 -0.8 2.56 0.8zm0 0z" fill="#009fe0" fill-rule="nonzero"/>
   <path d="M9.55 13.02c-0.16,-0.16 -0.42,-0.16 -0.58,0 -0.16,0.17 -0.16,0.43 0,0.59l0.95 0.95c0.08,0.08 0.19,0.12 0.29,0.12 0.11,0 0.21,-0.04 0.29,-0.12l1.7 -1.69c0.16,-0.16 0.16,-0.42 0,-0.59 -0.16,-0.16 -0.43,-0.16 -0.59,0l-1.4 1.4 -0.66 -0.66zm0 0z" fill="#009fe0" fill-rule="nonzero"/>
</svg>
