<svg xmlns="http://www.w3.org/2000/svg" xml:space="preserve" width="88px" height="92px" version="1.1"
viewBox="0 0 22.45 23.33" xmlns:xlink="http://www.w3.org/1999/xlink">
   <path d="M12.15 1.92l3.02 0c0.83,0 1.46,0.64 1.46,1.46l0 18.12c0,0.83 -0.68,1.46 -1.46,1.46l-13.34 0c-0.83,0 -1.46,-0.63 -1.46,-1.46l0 -18.12c0,-0.82 0.68,-1.46 1.46,-1.46l3.02 0" fill="none" fill-rule="nonzero" stroke="#092972" stroke-width="0.73" stroke-linecap="round" stroke-linejoin="round" stroke-miterlimit="10"/>
   <path d="M11.03 3.24l-5.06 0c-0.59,0 -1.08,-0.49 -1.08,-1.07l0 -0.73c0,-0.59 0.49,-1.07 1.08,-1.07l5.06 0c0.58,0 1.07,0.48 1.07,1.07l0 0.73c0.05,0.58 -0.49,1.07 -1.07,1.07zm0 0z" fill="none" fill-rule="nonzero" stroke="#092972" stroke-width="0.73" stroke-linecap="round" stroke-linejoin="round" stroke-miterlimit="10"/>
   <path d="M19.55 3.58l-0.44 0c-0.48,0 -0.87,0.39 -0.87,0.88l0 14.12 2.24 0 0 -14.12c0,-0.49 -0.39,-0.88 -0.93,-0.88zm0 0z" fill="none" fill-rule="nonzero" stroke="#092972" stroke-width="0.73" stroke-linecap="round" stroke-linejoin="round" stroke-miterlimit="10"/>
   <path d="M20.48 18.63l-1.12 2.58 -1.12 -2.58 2.24 0zm0 0z" fill="none" fill-rule="nonzero" stroke="#092972" stroke-width="0.73" stroke-linecap="round" stroke-linejoin="round" stroke-miterlimit="10"/>
   <polyline points="18.24,6.16 22.09,6.16 22.09,9.23 " fill="none" fill-rule="nonzero" stroke="#092972" stroke-width="0.73" stroke-linecap="round" stroke-linejoin="round" stroke-miterlimit="10"/>
   <polyline points="3.34,8.25 4.02,8.94 6.06,6.89 " fill="none" fill-rule="nonzero" stroke="#009fe0" stroke-width="0.73" stroke-linecap="round" stroke-linejoin="round" stroke-miterlimit="10"/>
   <line x1="8.16" y1="7.28" x2="13.66" y2= "7.28"  fill="none" fill-rule="nonzero" stroke="#092972" stroke-width="0.73" stroke-linecap="round" stroke-linejoin="round" stroke-miterlimit="10"/>
   <line x1="8.16" y1="8.84" x2="10.93" y2= "8.84" />
   <polyline points="3.34,12.78 4.02,13.47 6.06,11.47 " fill="none" fill-rule="nonzero" stroke="#009fe0" stroke-width="0.73" stroke-linecap="round" stroke-linejoin="round" stroke-miterlimit="10"/>
   <line x1="8.16" y1="11.86" x2="13.66" y2= "11.86"  fill="none" fill-rule="nonzero" stroke="#092972" stroke-width="0.73" stroke-linecap="round" stroke-linejoin="round" stroke-miterlimit="10"/>
   <line x1="8.16" y1="13.37" x2="10.93" y2= "13.37"  fill="none" fill-rule="nonzero" stroke="#092972" stroke-width="0.73" stroke-linecap="round" stroke-linejoin="round" stroke-miterlimit="10"/>
   <polyline points="3.34,17.36 4.02,18.04 6.06,16 " fill="none" fill-rule="nonzero" stroke="#009fe0" stroke-width="0.73" stroke-linecap="round" stroke-linejoin="round" stroke-miterlimit="10"/>
   <line x1="8.16" y1="16.39" x2="13.66" y2= "16.39"  fill="none" fill-rule="nonzero" stroke="#092972" stroke-width="0.73" stroke-linecap="round" stroke-linejoin="round" stroke-miterlimit="10"/>
   <line x1="8.16" y1="17.9" x2="10.93" y2= "17.9"  fill="none" fill-rule="nonzero" stroke="#092972" stroke-width="0.73" stroke-linecap="round" stroke-linejoin="round" stroke-miterlimit="10"/>
</svg>
