
<svg xmlns="http://www.w3.org/2000/svg" xml:space="preserve" width="23px" height="23px" version="1.1" 
viewBox="0 0 0.38 0.38" xmlns:xlink="http://www.w3.org/1999/xlink">
  <path d="M0 0.19c0,-0.11 0.08,-0.19 0.19,-0.19 0.03,0 0.06,0.01 0.08,0.02 0.01,0 0.01,0.02 0.01,0.02 0,0.01 -0.02,0.02 -0.03,0.01 -0.02,-0.01 -0.04,-0.01 -0.06,-0.01 -0.09,0 -0.15,0.06 -0.15,0.15 0,0.08 0.06,0.15 0.15,0.15 0.08,0 0.15,-0.07 0.15,-0.15 0,-0.01 0,-0.01 0,-0.02 0,-0.01 0,-0.02 0.01,-0.02 0.01,0 0.02,0.01 0.02,0.02 0.01,0 0.01,0.01 0.01,0.02 0,0.1 -0.09,0.19 -0.19,0.19 -0.11,0 -0.19,-0.09 -0.19,-0.19zm0.37 -0.15c0.01,0.01 0.01,0.02 0,0.03l-0.17 0.17c-0.01,0.01 -0.02,0.01 -0.03,0l-0.05 -0.06c-0.01,0 -0.01,-0.02 0,-0.02 0.01,-0.01 0.02,-0.01 0.02,0l0.05 0.04 0.15 -0.16c0.01,0 0.02,0 0.03,0zm0 0z" fill="#ffffff"/>
</svg>
