
<svg xmlns="http://www.w3.org/2000/svg" xml:space="preserve" width="22px" height="11px" version="1.1" style="shape-rendering:geometricPrecision; text-rendering:geometricPrecision; image-rendering:optimizeQuality; fill-rule:evenodd; clip-rule:evenodd" viewBox="0 0 0.61 0.3"  xmlns:xlink="http://www.w3.org/1999/xlink">
  <path d="M0.61 0.13c0,0 0,0 0,0l-0.13 -0.12c-0.01,-0.01 -0.02,-0.01 -0.03,0 -0.01,0.01 -0.01,0.02 0,0.03l0.08 0.08 -0.51 0c-0.01,0 -0.02,0.02 -0.02,0.03 0,0.01 0.01,0.02 0.02,0.02l0.51 0 -0.08 0.09c-0.01,0.01 -0.01,0.02 0,0.03 0.01,0.01 0.02,0.01 0.03,0l0.13 -0.12c0,0 0,0 0,0 0,-0.01 0,-0.03 0,-0.04zm0 0z" fill="#ffffff" fill-rule="nonzero"/>
</svg>
