<svg xmlns="http://www.w3.org/2000/svg" xml:space="preserve" width="79px" height="79px" version="1.1" viewBox="0 0 19.21 19.21" xmlns:xlink="http://www.w3.org/1999/xlink">
   <path d="M6.76 1.33c-2.2,0 -4.18,1.32 -5.02,3.35 -0.84,2.03 -0.37,4.36 1.18,5.92 1.55,1.55 3.89,2.01 5.92,1.17 2.02,-0.84 3.35,-2.82 3.35,-5.01 -0.01,-3 -2.43,-5.43 -5.43,-5.43zm0 10.22c-1.94,0 -3.69,-1.17 -4.43,-2.96 -0.74,-1.79 -0.33,-3.85 1.04,-5.22 1.37,-1.37 3.43,-1.78 5.22,-1.04 1.79,0.74 2.96,2.49 2.96,4.43 0,2.64 -2.15,4.79 -4.79,4.79zm0 0z" fill="#ffffff" fill-rule="nonzero"/>
   <path d="M10.15 5.55l-3.19 -2.55c-0.12,-0.1 -0.29,-0.1 -0.4,0l-3.2 2.55c-0.1,0.08 -0.14,0.23 -0.1,0.36 0.05,0.12 0.17,0.21 0.3,0.21l0.32 0 0 3.51c0,0.18 0.15,0.32 0.32,0.32l5.11 0c0.18,0 0.32,-0.14 0.32,-0.32l0 -3.51 0.32 0c0.14,0 0.26,-0.09 0.3,-0.21 0.05,-0.13 0.01,-0.28 -0.1,-0.36zm-2.75 3.76l-1.28 0 0 -1.91 1.28 0 0 1.91zm1.59 -3.51l0 3.51 -0.95 0 0 -2.23c0,-0.18 -0.15,-0.32 -0.32,-0.32l-1.92 0c-0.18,0 -0.32,0.14 -0.32,0.32l0 2.23 -0.96 0 0 -3.51c0,-0.1 -0.05,-0.2 -0.13,-0.26l2.37 -1.89 2.36 1.89c-0.08,0.06 -0.13,0.16 -0.13,0.26zm0 0z" fill="#ffffff" fill-rule="nonzero"/>
   <path d="M5.62 15.41l-2.55 -1.27c-0.09,-0.05 -0.2,-0.05 -0.29,0l-2.55 1.27c-0.14,0.07 -0.2,0.22 -0.17,0.36 0.03,0.15 0.16,0.25 0.31,0.25l0.32 0 0 2.87c0,0.18 0.14,0.32 0.32,0.32l3.83 0c0.18,0 0.32,-0.14 0.32,-0.32l0 -2.87 0.32 0c0.15,0 0.28,-0.1 0.31,-0.25 0.04,-0.14 -0.03,-0.29 -0.17,-0.36l0 0zm-2.38 3.16l-0.63 0 0 -1.27 0.63 0 0 1.27zm1.28 -2.87l0 2.87 -0.64 0 0 -1.59c0,-0.18 -0.14,-0.32 -0.32,-0.32l-1.27 0c-0.18,0 -0.32,0.14 -0.32,0.32l0 1.59 -0.64 0 0 -2.87c0,-0.04 -0.01,-0.08 -0.02,-0.11l1.62 -0.81 1.61 0.81c-0.01,0.03 -0.02,0.07 -0.02,0.11zm0 0z" fill="#ffffff" fill-rule="nonzero"/>
   <path d="M19.04 1.36l-2.56 -1.28c-0.09,-0.04 -0.19,-0.04 -0.28,0l-2.56 1.28c-0.13,0.07 -0.2,0.22 -0.17,0.36 0.04,0.15 0.17,0.25 0.31,0.25l0.32 0 0 2.87c0,0.18 0.15,0.32 0.32,0.32l3.83 0c0.18,0 0.32,-0.14 0.32,-0.32l0 -2.87 0.32 0c0.15,0 0.28,-0.1 0.31,-0.25 0.04,-0.14 -0.03,-0.29 -0.16,-0.36zm-2.38 3.16l-0.64 0 0 -1.28 0.64 0 0 1.28zm1.28 -2.87l0 2.87 -0.64 0 0 -1.59c0,-0.18 -0.15,-0.32 -0.32,-0.32l-1.28 0c-0.18,0 -0.32,0.14 -0.32,0.32l0 1.59 -0.64 0 0 -2.87c0,-0.04 0,-0.08 -0.02,-0.11l1.62 -0.81 1.62 0.81c-0.02,0.03 -0.02,0.07 -0.02,0.11zm0 0z" fill="#ffffff" fill-rule="nonzero"/>
   <path d="M13.29 11.04c-0.12,-0.13 -0.32,-0.13 -0.45,0l-0.22 0.22 -0.5 -0.49c2.12,-2.83 1.69,-6.81 -0.98,-9.13 -2.67,-2.31 -6.67,-2.17 -9.17,0.33 -2.5,2.5 -2.64,6.5 -0.33,9.17 2.32,2.67 6.3,3.1 9.13,0.98l0.49 0.5 -0.22 0.22c-0.13,0.13 -0.13,0.33 0,0.45l5.42 5.42c0.62,0.62 1.63,0.62 2.25,0 0.62,-0.62 0.62,-1.63 0,-2.25l-5.42 -5.42zm-12.6 -4.28c0,-2.46 1.48,-4.67 3.75,-5.61 2.26,-0.94 4.87,-0.42 6.61,1.32 1.73,1.73 2.25,4.34 1.31,6.61 -0.94,2.27 -3.15,3.75 -5.6,3.75 -3.35,-0.01 -6.07,-2.72 -6.07,-6.07zm11.02 4.5l0.45 0.45 -0.45 0.45 -0.45 -0.45c0.16,-0.14 0.31,-0.29 0.45,-0.45zm6.55 7c-0.38,0.36 -0.98,0.36 -1.35,0l-5.2 -5.19 1.36 -1.36 5.19 5.2c0.18,0.18 0.28,0.42 0.28,0.67 0,0.26 -0.1,0.5 -0.28,0.68l0 0zm0 0z" fill="#ffffff" fill-rule="nonzero"/>
   <polygon points="17.01,17.47 17.46,17.02 17.92,17.47 17.46,17.92 " fill="#ffffff" fill-rule="nonzero"/>
   <polygon points="14.75,15.21 15.21,14.76 17.01,16.56 16.56,17.02 " fill="#ffffff" fill-rule="nonzero"/>
   <polygon points="5.8,17.62 7.08,17.62 7.08,16.98 5.8,16.98 " fill="#ffffff" fill-rule="nonzero"/>
   <polygon points="7.72,17.62 8.99,17.62 8.99,16.98 7.72,16.98 " fill="#ffffff" fill-rule="nonzero"/>
   <polygon points="9.63,17.62 10.91,17.62 10.91,16.98 9.63,16.98 " fill="#ffffff" fill-rule="nonzero"/>
   <polygon points="11.55,17.62 12.83,17.62 12.83,16.98 11.55,16.98 " fill="#ffffff" fill-rule="nonzero"/>
   <polygon points="16.02,7.08 16.66,7.08 16.66,5.8 16.02,5.8 " fill="#ffffff" fill-rule="nonzero"/>
   <polygon points="16.02,8.99 16.66,8.99 16.66,7.72 16.02,7.72 " fill="#ffffff" fill-rule="nonzero"/>
   <polygon points="16.02,10.91 16.66,10.91 16.66,9.63 16.02,9.63 " fill="#ffffff" fill-rule="nonzero"/>
   <polygon points="16.02,12.83 16.66,12.83 16.66,11.55 16.02,11.55 " fill="#ffffff" fill-rule="nonzero"/>
</svg>