<svg xmlns="http://www.w3.org/2000/svg" xml:space="preserve" width="79px" height="79px" version="1.1" viewBox="0 0 4.71 4.71" xmlns:xlink="http://www.w3.org/1999/xlink">
   <path d="M3.38 2.04c-0.54,0 -1.03,0.33 -1.24,0.83 -0.2,0.49 -0.09,1.07 0.29,1.45 0.38,0.38 0.96,0.5 1.46,0.29 0.5,-0.21 0.82,-0.69 0.82,-1.23 0,-0.74 -0.6,-1.34 -1.33,-1.34zm0 2.51c-0.48,0 -0.91,-0.28 -1.09,-0.72 -0.18,-0.44 -0.08,-0.95 0.25,-1.29 0.34,-0.33 0.85,-0.43 1.29,-0.25 0.44,0.18 0.72,0.61 0.72,1.09 0,0.65 -0.52,1.17 -1.17,1.17zm-2.75 -2.93l1.33 -1.05 1.34 1.05 0 0.19c0,0.04 0.03,0.07 0.08,0.07 0.04,0 0.07,-0.03 0.07,-0.07l0 -0.07 0.13 0.09c0.03,0.03 0.08,0.03 0.11,-0.01l0.22 -0.28c0.01,-0.02 0.02,-0.04 0.02,-0.06 -0.01,-0.02 -0.02,-0.04 -0.03,-0.05l-0.45 -0.35 0 -1c0,-0.02 0,-0.04 -0.02,-0.06 -0.01,-0.01 -0.03,-0.02 -0.05,-0.02l-0.63 0c-0.02,0 -0.04,0.01 -0.06,0.02 -0.01,0.02 -0.02,0.04 -0.02,0.06l0 0.39 -0.52 -0.4c-0.11,-0.09 -0.26,-0.09 -0.38,0l-1.74 1.36c-0.02,0.01 -0.03,0.03 -0.03,0.05 0,0.02 0,0.04 0.02,0.06l0.22 0.28c0.02,0.04 0.07,0.04 0.11,0.01l0.12 -0.09 0 1.56 -0.16 0c-0.02,0 -0.04,0.01 -0.05,0.02 -0.02,0.02 -0.02,0.04 -0.02,0.06l0 0.31c0,0.02 0,0.04 0.02,0.06 0.01,0.01 0.03,0.02 0.05,0.02l1.5 0c0.04,0 0.07,-0.04 0.07,-0.08 0,-0.04 -0.03,-0.08 -0.07,-0.08l-1.42 0 0 -0.16 1.42 0c0.04,0 0.07,-0.03 0.07,-0.07 0,-0.05 -0.03,-0.08 -0.07,-0.08l0 -1.34c0,-0.02 -0.01,-0.04 -0.03,-0.05 -0.01,-0.02 -0.03,-0.03 -0.05,-0.03l-0.79 0c-0.02,0 -0.04,0.01 -0.05,0.03 -0.02,0.01 -0.03,0.03 -0.03,0.05l0 1.34 -0.23 0 0 -1.68zm2.2 -1.46l0.47 0 0 0.8 -0.47 -0.37 0 -0.43zm-2.52 1.5l-0.12 -0.15 1.68 -1.32c0.06,-0.04 0.13,-0.04 0.18,0l1.69 1.32 -0.13 0.15 -1.6 -1.25c-0.03,-0.02 -0.07,-0.02 -0.1,0l-1.6 1.25zm0.71 0.38l0.63 0 0 1.26 -0.63 0 0 -1.26zm1.65 -0.16c0.04,0 0.08,0.04 0.08,0.08 0,0.05 -0.04,0.08 -0.08,0.08l-0.47 0 0 0.39c0,0.05 -0.04,0.08 -0.08,0.08 -0.04,0 -0.08,-0.03 -0.08,-0.08l0 -0.47c0,-0.02 0.01,-0.04 0.02,-0.05 0.02,-0.02 0.04,-0.03 0.06,-0.03l0.55 0zm0.71 0.48c-0.42,0 -0.79,0.24 -0.95,0.63 -0.15,0.38 -0.07,0.82 0.22,1.11 0.3,0.29 0.74,0.38 1.12,0.22 0.38,-0.16 0.63,-0.53 0.63,-0.94 0,-0.57 -0.46,-1.02 -1.02,-1.02zm0 1.88c-0.35,0 -0.67,-0.21 -0.8,-0.53 -0.14,-0.33 -0.06,-0.7 0.19,-0.94 0.24,-0.25 0.61,-0.33 0.94,-0.19 0.32,0.13 0.53,0.45 0.53,0.8 0,0.47 -0.39,0.86 -0.86,0.86z" fill="#ffffff" fill-rule="nonzero"/>
   <path d="M2.96 3.55l0 -0.14 0.57 0c0.01,0 0.02,0 0.03,0 0.02,0 0.03,0 0.05,0 0.05,-0.02 0.09,-0.05 0.12,-0.09 0.03,-0.04 0.04,-0.09 0.04,-0.14 0,-0.04 -0.01,-0.07 -0.02,-0.1 -0.01,-0.03 -0.03,-0.06 -0.05,-0.09 -0.02,-0.02 -0.06,-0.04 -0.09,-0.05 -0.02,0 -0.03,0 -0.05,0 -0.01,0 -0.02,0 -0.03,0l-0.34 0 0 -0.14 0.34 0c0.01,0 0.03,0 0.04,0 0.02,0 0.03,0 0.05,0 0.07,0.01 0.12,0.03 0.17,0.07 0.04,0.03 0.08,0.08 0.1,0.13 0.02,0.05 0.03,0.11 0.03,0.18 0,0.09 -0.02,0.17 -0.07,0.24 -0.05,0.06 -0.13,0.1 -0.23,0.12 -0.02,0 -0.03,0 -0.05,0 -0.01,0 -0.03,0.01 -0.04,0.01l-0.57 0zm0 0.26l0 -0.12 0.67 0 0 0.12 -0.67 0zm0.12 0.19l0 -1.2 0.15 0 0 1.2 -0.15 0z" fill="#ffffff" fill-rule="nonzero"/>
</svg>