<svg xmlns="http://www.w3.org/2000/svg" xml:space="preserve" width="90px" height="86px" version="1.1" viewBox="0 0 12.53 11.99" xmlns:xlink="http://www.w3.org/1999/xlink">
   <path d="M12.32 2.56l-0.62 -0.52 0 -1.47c0,-0.31 -0.26,-0.56 -0.58,-0.56l-0.37 0c-0.32,0 -0.58,0.25 -0.58,0.56l0 0.17 -0.59 -0.5c-0.38,-0.32 -0.97,-0.32 -1.36,0l-1.18 1c-0.07,0.07 -0.08,0.18 -0.01,0.25 0.07,0.08 0.18,0.08 0.26,0.02l1.18 -1c0.25,-0.21 0.62,-0.21 0.87,0l2.74 2.32c0.09,0.07 0.1,0.21 0.03,0.3 -0.04,0.05 -0.1,0.08 -0.16,0.08 -0.07,0.01 -0.13,-0.01 -0.18,-0.05l-2.56 -2.17c-0.18,-0.14 -0.44,-0.14 -0.61,0l-2.56 2.17c-0.05,0.04 -0.11,0.06 -0.18,0.05 -0.06,0 -0.12,-0.03 -0.16,-0.08 -0.07,-0.09 -0.06,-0.23 0.03,-0.3l1.08 -0.91c0.07,-0.07 0.08,-0.18 0.01,-0.25 -0.06,-0.08 -0.18,-0.08 -0.26,-0.02l-1.07 0.91c-0.24,0.2 -0.27,0.54 -0.08,0.78 0.1,0.13 0.25,0.21 0.41,0.23 0.08,0 0.15,0 0.21,-0.02l0 1.89c-0.06,-0.02 -0.12,-0.03 -0.19,-0.03l-0.37 0c-0.32,0 -0.58,0.24 -0.58,0.55l0 0.17 -0.59 -0.5c-0.39,-0.32 -0.97,-0.32 -1.36,0.01l-0.86 0.73c-0.01,-0.13 -0.02,-0.26 -0.02,-0.39 0,-1.23 0.59,-2.39 1.58,-3.15l0 0.83c0,0.1 0.09,0.18 0.19,0.18 0.1,0 0.18,-0.08 0.18,-0.18l0 -1.18c0,-0.1 -0.08,-0.17 -0.18,-0.17l-1.24 0c-0.1,0 -0.18,0.07 -0.18,0.17 0,0.1 0.08,0.18 0.18,0.18l0.69 0c-1,0.83 -1.59,2.04 -1.59,3.32 0,0.22 0.02,0.44 0.05,0.66 0,0 0,0.01 0,0.01l-1.54 1.3c-0.23,0.2 -0.27,0.55 -0.08,0.78 0.1,0.13 0.26,0.21 0.42,0.23 0.07,0 0.14,0 0.21,-0.02l0 2.52c0,0.3 0.25,0.53 0.55,0.53l0.28 0c0.11,0 0.19,-0.08 0.19,-0.17 0,-0.1 -0.08,-0.18 -0.19,-0.18l-0.28 0c-0.1,0 -0.18,-0.08 -0.18,-0.18l0 -0.76 1.61 0 0 0.94 -0.41 0c-0.1,0 -0.18,0.08 -0.18,0.18 0,0.09 0.08,0.17 0.18,0.17l3.62 0c0.3,0 0.55,-0.23 0.55,-0.53l0 -2.52c0.05,0.01 0.1,0.02 0.15,0.02 0.02,0 0.04,0 0.06,0 0.17,-0.02 0.32,-0.1 0.42,-0.23 0.19,-0.23 0.15,-0.58 -0.08,-0.78l-0.62 -0.52 0 -0.85c0.05,0.01 0.11,0.02 0.17,0.02l3.86 0c-0.16,1 -0.71,1.9 -1.53,2.54l0 -0.83c0,-0.1 -0.08,-0.18 -0.19,-0.18 -0.1,0 -0.18,0.08 -0.18,0.18l0 1.17c0,0.1 0.08,0.18 0.18,0.18l1.24 0c0.1,0 0.18,-0.08 0.18,-0.18 0,-0.09 -0.08,-0.17 -0.18,-0.17l-0.69 0c0.84,-0.69 1.39,-1.65 1.54,-2.71l0.4 0c0.31,0 0.55,-0.24 0.55,-0.53l0 -2.52c0.05,0.01 0.1,0.02 0.16,0.02 0.02,0 0.04,0 0.05,0 0.17,-0.02 0.32,-0.1 0.42,-0.23 0.19,-0.24 0.16,-0.58 -0.08,-0.78zm-0.99 -0.84l-0.79 -0.67 0 -0.48c0,-0.11 0.09,-0.2 0.21,-0.2l0.37 0c0.12,0 0.21,0.09 0.21,0.2l0 1.15zm-6.07 4.24c0,-0.11 0.09,-0.2 0.21,-0.2l0.37 0c0.09,0 0.16,0.05 0.19,0.13l0.02 1.23 -0.79 -0.67 0 -0.49zm-1.12 5.68l-1.04 0 0 -1.17c0,-0.22 0.18,-0.39 0.4,-0.39l0.23 0c0.23,0 0.41,0.17 0.41,0.39l0 1.17zm1.98 -0.18c0,0.1 -0.08,0.18 -0.18,0.18l-1.43 0 0 -0.94c0.01,0 0.01,0 0.02,0l1.59 0 0 0.76 0 0zm0 -2.73l0 1.62 -1.59 0c-0.01,0 -0.02,0 -0.03,0 -0.06,-0.35 -0.38,-0.63 -0.77,-0.63l-0.23 0c-0.38,0 -0.7,0.28 -0.76,0.63l-1.62 0 0 -1.62c0,-0.01 0,-0.01 0,-0.02l2.44 -2.06c0.03,-0.03 0.09,-0.03 0.12,0l2.44 2.06c0,0.01 0,0.01 0,0.02zm0.67 -0.51c0,0 0,0 0.01,0 0.09,0.08 0.1,0.21 0.03,0.3 -0.04,0.05 -0.1,0.08 -0.17,0.09 -0.06,0 -0.12,-0.02 -0.17,-0.06l-2.57 -2.17c-0.08,-0.07 -0.19,-0.1 -0.3,-0.1 -0.11,0 -0.22,0.03 -0.31,0.1l-2.56 2.17c-0.05,0.04 -0.11,0.06 -0.17,0.06 -0.07,-0.01 -0.13,-0.04 -0.16,-0.09 -0.08,-0.09 -0.06,-0.22 0.03,-0.3l2.73 -2.32c0.25,-0.21 0.63,-0.21 0.88,0l2.73 2.32zm1.22 -1.97l-1.42 0c-0.08,0 -0.15,-0.05 -0.17,-0.11l-0.02 -0.83 1.61 0 0 0.94zm1.42 0l-1.05 0 0 -1.17c0,-0.22 0.18,-0.39 0.41,-0.39l0.23 0c0.22,0 0.41,0.17 0.41,0.39l0 1.17zm1.98 -0.18c0,0.1 -0.09,0.18 -0.19,0.18l-1.43 0 0 -0.94c0.01,0 0.02,0 0.03,0l1.59 0 0 0.76zm0 -2.73l0 1.62 -1.59 0c-0.01,0 -0.02,0 -0.03,0 -0.06,-0.35 -0.38,-0.63 -0.77,-0.63l-0.23 0c-0.39,0 -0.71,0.28 -0.77,0.63l-1.62 0 0 -1.62c0,-0.01 0,-0.01 0,-0.02l2.44 -2.06c0.04,-0.03 0.09,-0.03 0.13,0l2.44 2.06c0,0.01 0,0.01 0,0.02zm0 0z" fill="#ffffff" fill-rule="nonzero"/>
   <path d="M7.99 2.85c0,0.49 0.41,0.88 0.91,0.88 0.51,0 0.92,-0.39 0.92,-0.88 0,-0.48 -0.41,-0.87 -0.92,-0.87 -0.5,0 -0.91,0.39 -0.91,0.87zm1.46 0c0,0.29 -0.25,0.52 -0.55,0.52 -0.3,0 -0.54,-0.23 -0.54,-0.52 0,-0.28 0.24,-0.52 0.54,-0.52 0.3,0 0.55,0.24 0.55,0.52zm0 0z" fill="#ffffff" fill-rule="nonzero"/>
   <path d="M2.71 8.25c0,0.48 0.41,0.87 0.91,0.87 0.5,0 0.91,-0.39 0.91,-0.87 0,-0.49 -0.41,-0.88 -0.91,-0.88 -0.5,0 -0.91,0.39 -0.91,0.88zm1.45 0c0,0.28 -0.24,0.52 -0.54,0.52 -0.3,0 -0.54,-0.24 -0.54,-0.52 0,-0.29 0.24,-0.52 0.54,-0.52 0.3,0 0.54,0.23 0.54,0.52zm0 0z" fill="#ffffff" fill-rule="nonzero"/>
</svg>
